<?xml version="1.0" standalone="no"?>
<!DOCTYPE svg PUBLIC "-//W3C//DTD SVG 20010904//EN"
 "http://www.w3.org/TR/2001/REC-SVG-20010904/DTD/svg10.dtd">
<svg version="1.0" xmlns="http://www.w3.org/2000/svg"
 width="75.000000pt" height="75.000000pt" viewBox="0 0 75.000000 75.000000"
 preserveAspectRatio="xMidYMid meet">
<metadata>
Created by potrace 1.11, written by Peter Selinger 2001-2013
</metadata>
<g transform="translate(0.000000,75.000000) scale(0.100000,-0.100000)"
fill="#000000" stroke="none">
<path d="M110 526 c0 -7 -7 -19 -15 -26 -8 -7 -15 -25 -15 -41 0 -33 -19 -79
-33 -79 -5 0 -6 -7 -3 -16 3 -8 -1 -31 -9 -51 -17 -39 -20 -83 -6 -83 5 0 19
29 32 65 23 65 34 76 57 53 9 -9 12 -9 12 0 0 7 6 12 14 12 8 0 23 -27 37 -65
12 -36 26 -65 31 -65 13 0 9 44 -7 83 -8 20 -12 43 -9 51 3 9 1 16 -5 16 -13
0 -37 58 -33 74 4 13 -31 86 -40 86 -5 0 -8 -6 -8 -14z m32 -124 c4 -15 0 -19
-22 -19 -22 0 -26 4 -22 19 2 10 12 18 22 18 10 0 20 -8 22 -18z"/>
<path d="M680 501 c-8 -5 -36 -12 -62 -15 -25 -4 -61 -17 -80 -29 -29 -20 -33
-29 -36 -72 -2 -28 -7 -54 -13 -59 -16 -17 -10 -72 10 -90 33 -30 81 -30 151
-2 63 26 80 39 80 64 0 21 -45 13 -68 -12 -45 -52 -152 -57 -152 -7 0 40 10
50 46 44 48 -8 94 13 94 43 0 13 -6 24 -12 24 -7 0 -2 6 12 13 14 7 26 23 28
35 3 17 8 21 21 17 22 -7 44 17 35 39 -7 17 -30 20 -54 7z m-78 -92 c5 -3 -9
-13 -32 -22 -40 -15 -40 -15 -40 8 0 13 10 31 22 39 20 15 23 14 32 -2 5 -9
13 -20 18 -23z m48 31 c0 -5 -6 -10 -14 -10 -8 0 -18 5 -21 10 -3 6 3 10 14
10 12 0 21 -4 21 -10z m-35 -80 c-3 -5 -18 -10 -33 -9 -24 0 -25 1 -7 9 28 12
47 12 40 0z"/>
<path d="M287 432 c-19 -20 -22 -49 -8 -71 7 -10 3 -23 -10 -39 -24 -31 -24
-64 -1 -85 21 -19 73 -22 103 -7 13 7 31 8 54 1 28 -7 35 -6 35 4 0 8 -9 17
-20 20 -24 7 -25 23 -5 49 22 30 19 66 -5 66 -16 0 -20 -7 -20 -33 0 -47 -9
-51 -41 -21 l-28 27 21 28 c20 27 20 29 4 53 -20 31 -56 34 -79 8z m51 -31 c2
-13 -1 -28 -6 -33 -13 -13 -34 25 -26 47 9 22 28 13 32 -14z m7 -111 c25 -26
27 -32 15 -40 -22 -14 -36 -12 -54 6 -23 22 -20 64 4 64 3 0 19 -14 35 -30z"/>
</g>
</svg>
